<svg width="835" height="106" viewBox="0 0 835 106" fill="none" xmlns="http://www.w3.org/2000/svg">
<path d="M87.9 79.7C81.3 79.7 75.2333 78.1667 69.7 75.1C64.2333 72.0333 59.8667 67.7667 56.6 62.3C53.4 56.7667 51.8 50.5667 51.8 43.7C51.8 36.8333 53.4 30.6667 56.6 25.2C59.8667 19.7333 64.2333 15.4667 69.7 12.4C75.2333 9.33333 81.3 7.8 87.9 7.8C94.5 7.8 100.533 9.33333 106 12.4C111.533 15.4667 115.867 19.7333 119 25.2C122.2 30.6667 123.8 36.8333 123.8 43.7C123.8 50.5667 122.2 56.7667 119 62.3C115.8 67.7667 111.467 72.0333 106 75.1C100.533 78.1667 94.5 79.7 87.9 79.7ZM87.9 64.1C93.5 64.1 97.9667 62.2333 101.3 58.5C104.7 54.7667 106.4 49.8333 106.4 43.7C106.4 37.5 104.7 32.5667 101.3 28.9C97.9667 25.1667 93.5 23.3 87.9 23.3C82.2333 23.3 77.7 25.1333 74.3 28.8C70.9667 32.4667 69.3 37.4333 69.3 43.7C69.3 49.9 70.9667 54.8667 74.3 58.6C77.7 62.2667 82.2333 64.1 87.9 64.1Z" fill="#C3AEFF"/>
<path d="M130.332 54.988C130.332 50.058 131.318 45.737 133.29 42.025C135.32 38.255 138.104 35.355 141.642 33.325C145.18 31.295 149.24 30.28 153.822 30.28C159.622 30.28 164.407 31.672 168.177 34.456C172.005 37.182 174.586 41.097 175.92 46.201H165.219C164.349 43.823 162.957 41.967 161.043 40.633C159.129 39.299 156.722 38.632 153.822 38.632C149.762 38.632 146.514 40.082 144.078 42.982C141.7 45.824 140.511 49.826 140.511 54.988C140.511 60.15 141.7 64.181 144.078 67.081C146.514 69.981 149.762 71.431 153.822 71.431C159.564 71.431 163.363 68.908 165.219 63.862H175.92C174.528 68.734 171.918 72.62 168.09 75.52C164.262 78.362 159.506 79.783 153.822 79.783C149.24 79.783 145.18 78.768 141.642 76.738C138.104 74.65 135.32 71.75 133.29 68.038C131.318 64.268 130.332 59.918 130.332 54.988ZM210.599 30.28C214.253 30.28 217.501 31.063 220.343 32.629C223.243 34.195 225.505 36.515 227.129 39.589C228.811 42.663 229.652 46.375 229.652 50.725V79H219.821V52.204C219.821 47.912 218.748 44.635 216.602 42.373C214.456 40.053 211.527 38.893 207.815 38.893C204.103 38.893 201.145 40.053 198.941 42.373C196.795 44.635 195.722 47.912 195.722 52.204V79H185.804V14.62H195.722V36.631C197.404 34.601 199.521 33.035 202.073 31.933C204.683 30.831 207.525 30.28 210.599 30.28ZM263.096 79.783C258.572 79.783 254.483 78.768 250.829 76.738C247.175 74.65 244.304 71.75 242.216 68.038C240.128 64.268 239.084 59.918 239.084 54.988C239.084 50.116 240.157 45.795 242.303 42.025C244.449 38.255 247.378 35.355 251.09 33.325C254.802 31.295 258.949 30.28 263.531 30.28C268.113 30.28 272.26 31.295 275.972 33.325C279.684 35.355 282.613 38.255 284.759 42.025C286.905 45.795 287.978 50.116 287.978 54.988C287.978 59.86 286.876 64.181 284.672 67.951C282.468 71.721 279.452 74.65 275.624 76.738C271.854 78.768 267.678 79.783 263.096 79.783ZM263.096 71.17C265.648 71.17 268.026 70.561 270.23 69.343C272.492 68.125 274.319 66.298 275.711 63.862C277.103 61.426 277.799 58.468 277.799 54.988C277.799 51.508 277.132 48.579 275.798 46.201C274.464 43.765 272.695 41.938 270.491 40.72C268.287 39.502 265.909 38.893 263.357 38.893C260.805 38.893 258.427 39.502 256.223 40.72C254.077 41.938 252.366 43.765 251.09 46.201C249.814 48.579 249.176 51.508 249.176 54.988C249.176 60.15 250.481 64.152 253.091 66.994C255.759 69.778 259.094 71.17 263.096 71.17ZM294.477 54.814C294.477 50 295.463 45.737 297.435 42.025C299.465 38.313 302.191 35.442 305.613 33.412C309.093 31.324 312.921 30.28 317.097 30.28C320.867 30.28 324.144 31.034 326.928 32.542C329.77 33.992 332.032 35.819 333.714 38.023V31.063H343.719V79H333.714V71.866C332.032 74.128 329.741 76.013 326.841 77.521C323.941 79.029 320.635 79.783 316.923 79.783C312.805 79.783 309.035 78.739 305.613 76.651C302.191 74.505 299.465 71.547 297.435 67.777C295.463 63.949 294.477 59.628 294.477 54.814ZM333.714 54.988C333.714 51.682 333.018 48.811 331.626 46.375C330.292 43.939 328.523 42.083 326.319 40.807C324.115 39.531 321.737 38.893 319.185 38.893C316.633 38.893 314.255 39.531 312.051 40.807C309.847 42.025 308.049 43.852 306.657 46.288C305.323 48.666 304.656 51.508 304.656 54.814C304.656 58.12 305.323 61.02 306.657 63.514C308.049 66.008 309.847 67.922 312.051 69.256C314.313 70.532 316.691 71.17 319.185 71.17C321.737 71.17 324.115 70.532 326.319 69.256C328.523 67.98 330.292 66.124 331.626 63.688C333.018 61.194 333.714 58.294 333.714 54.988Z" fill="white"/>
<path d="M416.1 79.7C410.967 79.7 406.367 78.8667 402.3 77.2C398.233 75.5333 394.967 73.0667 392.5 69.8C390.1 66.5333 388.833 62.6 388.7 58H406.9C407.167 60.6 408.067 62.6 409.6 64C411.133 65.3333 413.133 66 415.6 66C418.133 66 420.133 65.4333 421.6 64.3C423.067 63.1 423.8 61.4667 423.8 59.4C423.8 57.6667 423.2 56.2333 422 55.1C420.867 53.9667 419.433 53.0333 417.7 52.3C416.033 51.5667 413.633 50.7333 410.5 49.8C405.967 48.4 402.267 47 399.4 45.6C396.533 44.2 394.067 42.1333 392 39.4C389.933 36.6667 388.9 33.1 388.9 28.7C388.9 22.1667 391.267 17.0667 396 13.4C400.733 9.66667 406.9 7.8 414.5 7.8C422.233 7.8 428.467 9.66667 433.2 13.4C437.933 17.0667 440.467 22.2 440.8 28.8H422.3C422.167 26.5333 421.333 24.7667 419.8 23.5C418.267 22.1667 416.3 21.5 413.9 21.5C411.833 21.5 410.167 22.0667 408.9 23.2C407.633 24.2667 407 25.8333 407 27.9C407 30.1667 408.067 31.9333 410.2 33.2C412.333 34.4667 415.667 35.8333 420.2 37.3C424.733 38.8333 428.4 40.3 431.2 41.7C434.067 43.1 436.533 45.1333 438.6 47.8C440.667 50.4667 441.7 53.9 441.7 58.1C441.7 62.1 440.667 65.7333 438.6 69C436.6 72.2667 433.667 74.8667 429.8 76.8C425.933 78.7333 421.367 79.7 416.1 79.7Z" fill="#C3AEFF"/>
<path d="M473.341 79.783C468.817 79.783 464.728 78.768 461.074 76.738C457.42 74.65 454.549 71.75 452.461 68.038C450.373 64.268 449.329 59.918 449.329 54.988C449.329 50.116 450.402 45.795 452.548 42.025C454.694 38.255 457.623 35.355 461.335 33.325C465.047 31.295 469.194 30.28 473.776 30.28C478.358 30.28 482.505 31.295 486.217 33.325C489.929 35.355 492.858 38.255 495.004 42.025C497.15 45.795 498.223 50.116 498.223 54.988C498.223 59.86 497.121 64.181 494.917 67.951C492.713 71.721 489.697 74.65 485.869 76.738C482.099 78.768 477.923 79.783 473.341 79.783ZM473.341 71.17C475.893 71.17 478.271 70.561 480.475 69.343C482.737 68.125 484.564 66.298 485.956 63.862C487.348 61.426 488.044 58.468 488.044 54.988C488.044 51.508 487.377 48.579 486.043 46.201C484.709 43.765 482.94 41.938 480.736 40.72C478.532 39.502 476.154 38.893 473.602 38.893C471.05 38.893 468.672 39.502 466.468 40.72C464.322 41.938 462.611 43.765 461.335 46.201C460.059 48.579 459.421 51.508 459.421 54.988C459.421 60.15 460.726 64.152 463.336 66.994C466.004 69.778 469.339 71.17 473.341 71.17ZM528.125 39.154H519.251V79H509.246V39.154H503.591V31.063H509.246V27.67C509.246 22.16 510.696 18.158 513.596 15.664C516.554 13.112 521.165 11.836 527.429 11.836V20.101C524.413 20.101 522.296 20.681 521.078 21.841C519.86 22.943 519.251 24.886 519.251 27.67V31.063H528.125V39.154ZM548.486 39.154V65.689C548.486 67.487 548.892 68.792 549.704 69.604C550.574 70.358 552.024 70.735 554.054 70.735H560.144V79H552.314C547.848 79 544.426 77.956 542.048 75.868C539.67 73.78 538.481 70.387 538.481 65.689V39.154H532.826V31.063H538.481V19.144H548.486V31.063H560.144V39.154H548.486ZM633.665 31.063L618.788 79H608.348L598.691 43.591L589.034 79H578.594L563.63 31.063H573.722L583.727 69.604L593.906 31.063H604.259L614.003 69.43L623.921 31.063H633.665ZM637.771 54.814C637.771 50 638.757 45.737 640.729 42.025C642.759 38.313 645.485 35.442 648.907 33.412C652.387 31.324 656.215 30.28 660.391 30.28C664.161 30.28 667.438 31.034 670.222 32.542C673.064 33.992 675.326 35.819 677.008 38.023V31.063H687.013V79H677.008V71.866C675.326 74.128 673.035 76.013 670.135 77.521C667.235 79.029 663.929 79.783 660.217 79.783C656.099 79.783 652.329 78.739 648.907 76.651C645.485 74.505 642.759 71.547 640.729 67.777C638.757 63.949 637.771 59.628 637.771 54.814ZM677.008 54.988C677.008 51.682 676.312 48.811 674.92 46.375C673.586 43.939 671.817 42.083 669.613 40.807C667.409 39.531 665.031 38.893 662.479 38.893C659.927 38.893 657.549 39.531 655.345 40.807C653.141 42.025 651.343 43.852 649.951 46.288C648.617 48.666 647.95 51.508 647.95 54.814C647.95 58.12 648.617 61.02 649.951 63.514C651.343 66.008 653.141 67.922 655.345 69.256C657.607 70.532 659.985 71.17 662.479 71.17C665.031 71.17 667.409 70.532 669.613 69.256C671.817 67.98 673.586 66.124 674.92 63.688C676.312 61.194 677.008 58.294 677.008 54.988ZM709.958 38.023C711.408 35.587 713.322 33.702 715.7 32.368C718.136 30.976 721.007 30.28 724.313 30.28V40.546H721.79C717.904 40.546 714.946 41.532 712.916 43.504C710.944 45.476 709.958 48.898 709.958 53.77V79H700.04V31.063H709.958V38.023ZM777.364 53.857C777.364 55.655 777.248 57.279 777.016 58.729H740.389C740.679 62.557 742.1 65.631 744.652 67.951C747.204 70.271 750.336 71.431 754.048 71.431C759.384 71.431 763.154 69.198 765.358 64.732H776.059C774.609 69.14 771.97 72.765 768.142 75.607C764.372 78.391 759.674 79.783 754.048 79.783C749.466 79.783 745.348 78.768 741.694 76.738C738.098 74.65 735.256 71.75 733.168 68.038C731.138 64.268 730.123 59.918 730.123 54.988C730.123 50.058 731.109 45.737 733.081 42.025C735.111 38.255 737.924 35.355 741.52 33.325C745.174 31.295 749.35 30.28 754.048 30.28C758.572 30.28 762.603 31.266 766.141 33.238C769.679 35.21 772.434 37.994 774.406 41.59C776.378 45.128 777.364 49.217 777.364 53.857ZM767.011 50.725C766.953 47.071 765.648 44.142 763.096 41.938C760.544 39.734 757.383 38.632 753.613 38.632C750.191 38.632 747.262 39.734 744.826 41.938C742.39 44.084 740.94 47.013 740.476 50.725H767.011Z" fill="white"/>
</svg>
