<svg width="133" height="73" viewBox="0 0 133 73" fill="none" xmlns="http://www.w3.org/2000/svg">
<path d="M36.4 72.7C29.8 72.7 23.7333 71.1667 18.2 68.1C12.7333 65.0333 8.36667 60.7667 5.1 55.3C1.9 49.7667 0.3 43.5667 0.3 36.7C0.3 29.8333 1.9 23.6667 5.1 18.2C8.36667 12.7333 12.7333 8.46667 18.2 5.4C23.7333 2.33333 29.8 0.799999 36.4 0.799999C43 0.799999 49.0333 2.33333 54.5 5.4C60.0333 8.46667 64.3667 12.7333 67.5 18.2C70.7 23.6667 72.3 29.8333 72.3 36.7C72.3 43.5667 70.7 49.7667 67.5 55.3C64.3 60.7667 59.9667 65.0333 54.5 68.1C49.0333 71.1667 43 72.7 36.4 72.7ZM36.4 57.1C42 57.1 46.4667 55.2333 49.8 51.5C53.2 47.7667 54.9 42.8333 54.9 36.7C54.9 30.5 53.2 25.5667 49.8 21.9C46.4667 18.1667 42 16.3 36.4 16.3C30.7333 16.3 26.2 18.1333 22.8 21.8C19.4667 25.4667 17.8 30.4333 17.8 36.7C17.8 42.9 19.4667 47.8667 22.8 51.6C26.2 55.2667 30.7333 57.1 36.4 57.1ZM107.213 72.7C102.08 72.7 97.4799 71.8667 93.4133 70.2C89.3466 68.5333 86.0799 66.0667 83.6133 62.8C81.2133 59.5333 79.9466 55.6 79.8133 51H98.0133C98.2799 53.6 99.1799 55.6 100.713 57C102.247 58.3333 104.247 59 106.713 59C109.247 59 111.247 58.4333 112.713 57.3C114.18 56.1 114.913 54.4667 114.913 52.4C114.913 50.6667 114.313 49.2333 113.113 48.1C111.98 46.9667 110.547 46.0333 108.813 45.3C107.147 44.5667 104.747 43.7333 101.613 42.8C97.0799 41.4 93.3799 40 90.5133 38.6C87.6466 37.2 85.1799 35.1333 83.1133 32.4C81.0466 29.6667 80.0133 26.1 80.0133 21.7C80.0133 15.1667 82.3799 10.0667 87.1133 6.4C91.8466 2.66667 98.0133 0.799999 105.613 0.799999C113.347 0.799999 119.58 2.66667 124.313 6.4C129.047 10.0667 131.58 15.2 131.913 21.8H113.413C113.28 19.5333 112.447 17.7667 110.913 16.5C109.38 15.1667 107.413 14.5 105.013 14.5C102.947 14.5 101.28 15.0667 100.013 16.2C98.7466 17.2667 98.1133 18.8333 98.1133 20.9C98.1133 23.1667 99.1799 24.9333 101.313 26.2C103.447 27.4667 106.78 28.8333 111.313 30.3C115.847 31.8333 119.513 33.3 122.313 34.7C125.18 36.1 127.647 38.1333 129.713 40.8C131.78 43.4667 132.813 46.9 132.813 51.1C132.813 55.1 131.78 58.7333 129.713 62C127.713 65.2667 124.78 67.8667 120.913 69.8C117.047 71.7333 112.48 72.7 107.213 72.7Z" fill="#C3AEFF"/>
</svg>
